<svg xmlns="http://www.w3.org/2000/svg" xmlns:xlink="http://www.w3.org/1999/xlink" width="240" zoomAndPan="magnify" viewBox="0 0 180 179.999997" height="240" preserveAspectRatio="xMidYMid meet" version="1.2"><g id="e6f147cb6f"><path style="fill:none;stroke-width:2;stroke-linecap:round;stroke-linejoin:round;stroke:#2563e6;stroke-opacity:1;stroke-miterlimit:4;" d="M 12.000459 5.000459 C 12.000459 4.799566 11.980369 4.600905 11.942423 4.406709 C 11.902244 4.21028 11.844208 4.018316 11.768316 3.83528 C 11.690191 3.650012 11.596441 3.475905 11.484833 3.308494 C 11.373226 3.143316 11.245994 2.99153 11.103137 2.850905 C 10.96028 2.71028 10.80403 2.58528 10.636619 2.478137 C 10.469208 2.368762 10.292869 2.277244 10.107601 2.203584 C 9.920101 2.129923 9.730369 2.074119 9.531708 2.038405 C 9.33528 2.002691 9.136619 1.987066 8.937958 1.99153 C 8.737065 1.995994 8.540637 2.020548 8.344208 2.062959 C 8.150012 2.107602 7.96028 2.170102 7.777244 2.250459 C 7.59644 2.333048 7.422333 2.431262 7.259387 2.547334 C 7.09644 2.663405 6.946887 2.795102 6.810726 2.940191 C 6.674565 3.08528 6.551797 3.243762 6.446887 3.415637 C 6.341976 3.58528 6.254922 3.763852 6.185726 3.951352 C 6.116529 4.138852 6.067422 4.330816 6.036172 4.529477 C 6.004922 4.725905 5.993762 4.924566 6.00269 5.125459 C 5.708047 5.201352 5.426797 5.308495 5.15894 5.446887 C 4.888851 5.587513 4.638851 5.754923 4.406708 5.951352 C 4.176797 6.150013 3.969208 6.368763 3.788404 6.612066 C 3.607601 6.85537 3.455815 7.11653 3.335279 7.395548 C 3.212511 7.672334 3.123226 7.960281 3.067422 8.259388 C 3.011618 8.558495 2.989297 8.857602 3.00269 9.161174 C 3.013851 9.464745 3.060726 9.76162 3.141083 10.056263 C 3.22144 10.348674 3.333047 10.627692 3.475904 10.895549 C 3.350904 10.998227 3.232601 11.107602 3.118761 11.223674 C 3.007154 11.339745 2.902243 11.464745 2.804029 11.594209 C 2.705815 11.723674 2.616529 11.857602 2.536172 11.998227 C 2.453583 12.138852 2.382154 12.283942 2.317422 12.433495 C 2.254922 12.583049 2.201351 12.737067 2.156708 12.891085 C 2.109833 13.047335 2.076351 13.205817 2.049565 13.366531 C 2.025011 13.527245 2.007154 13.68796 2.00269 13.850906 C 1.995993 14.01162 2.000458 14.174567 2.013851 14.335281 C 2.027243 14.498228 2.049565 14.658942 2.083047 14.817424 C 2.116529 14.975906 2.15894 15.132156 2.212511 15.286174 C 2.263851 15.440192 2.324118 15.589745 2.395547 15.734835 C 2.466976 15.882156 2.545101 16.022781 2.632154 16.158942 C 2.72144 16.297335 2.81519 16.426799 2.920101 16.551799 C 3.022779 16.676799 3.134386 16.795103 3.25269 16.90671 C 3.370993 17.018317 3.493761 17.123228 3.625458 17.21921 C 3.754922 17.315192 3.891083 17.402246 4.03394 17.482603 C 3.998226 17.754924 3.991529 18.025014 4.011619 18.299567 C 4.031708 18.571889 4.080815 18.839746 4.156708 19.100906 C 4.230369 19.364299 4.333047 19.616532 4.460279 19.857603 C 4.587511 20.100907 4.737065 20.326353 4.911172 20.538407 C 5.085279 20.748228 5.279476 20.940192 5.491529 21.112067 C 5.705815 21.283942 5.933494 21.431264 6.176797 21.556264 C 6.420101 21.681264 6.672333 21.779478 6.935726 21.850907 C 7.199119 21.924567 7.469208 21.96921 7.74153 21.987067 C 8.013851 22.004925 8.286172 21.995996 8.556262 21.955817 C 8.826351 21.917871 9.091976 21.853139 9.348673 21.761621 C 9.605369 21.670103 9.850905 21.5518 10.08528 21.408942 C 10.317423 21.268317 10.533941 21.103139 10.734833 20.915639 C 10.933494 20.728139 11.112066 20.522782 11.268316 20.299567 C 11.426798 20.076353 11.560726 19.839746 11.667869 19.589746 C 11.777244 19.337514 11.859833 19.078585 11.915637 18.810728 C 11.971441 18.542871 12.000459 18.272781 12.000459 18.00046 Z M 12.000459 5.000459 " transform="matrix(1.75,0,0,1.75,68.964043,68.964041)"/><path style="fill:none;stroke-width:2;stroke-linecap:round;stroke-linejoin:round;stroke:#2563e6;stroke-opacity:1;stroke-miterlimit:4;" d="M 12.000459 5.000459 C 12.000459 4.799566 12.018316 4.600905 12.058494 4.406709 C 12.096441 4.21028 12.154476 4.018316 12.232601 3.83528 C 12.308494 3.650012 12.404476 3.475905 12.516084 3.308494 C 12.627691 3.143316 12.754923 2.99153 12.89778 2.850905 C 13.040637 2.71028 13.194655 2.58528 13.362066 2.478137 C 13.531709 2.368762 13.708048 2.277244 13.893316 2.203584 C 14.078584 2.129923 14.270548 2.074119 14.466977 2.038405 C 14.663405 2.002691 14.862066 1.987066 15.062959 1.99153 C 15.261619 1.995994 15.46028 2.020548 15.654477 2.062959 C 15.850905 2.107602 16.038405 2.170102 16.221441 2.250459 C 16.404477 2.333048 16.576352 2.431262 16.739298 2.547334 C 16.902245 2.663405 17.051798 2.795102 17.190191 2.940191 C 17.326352 3.08528 17.446888 3.243762 17.551798 3.415637 C 17.656709 3.58528 17.743763 3.763852 17.812959 3.951352 C 17.884388 4.138852 17.933495 4.330816 17.964745 4.529477 C 17.995995 4.725905 18.004923 4.924566 17.995995 5.125459 C 18.290638 5.201352 18.571888 5.308495 18.841977 5.446887 C 19.112066 5.587513 19.362066 5.754923 19.591977 5.951352 C 19.82412 6.150013 20.029477 6.368763 20.210281 6.612066 C 20.391084 6.85537 20.54287 7.11653 20.665638 7.395548 C 20.786174 7.672334 20.875459 7.960281 20.931263 8.259388 C 20.987066 8.558495 21.009388 8.857602 20.998227 9.161174 C 20.984834 9.464745 20.937959 9.76162 20.859834 10.056263 C 20.779477 10.348674 20.66787 10.627692 20.522781 10.895549 C 20.650013 10.998227 20.768316 11.107602 20.879924 11.223674 C 20.993763 11.339745 21.098674 11.464745 21.196888 11.594209 C 21.295102 11.723674 21.384388 11.857602 21.464745 11.998227 C 21.545102 12.138852 21.618763 12.283942 21.681263 12.433495 C 21.745995 12.583049 21.799566 12.737067 21.844209 12.891085 C 21.888852 13.047335 21.924566 13.205817 21.951352 13.366531 C 21.975906 13.527245 21.991531 13.68796 21.998227 13.850906 C 22.004924 14.01162 22.000459 14.174567 21.987066 14.335281 C 21.973674 14.498228 21.94912 14.658942 21.915638 14.817424 C 21.882156 14.975906 21.839745 15.132156 21.788406 15.286174 C 21.737066 15.440192 21.674566 15.589745 21.60537 15.734835 C 21.533941 15.882156 21.455816 16.022781 21.366531 16.158942 C 21.279477 16.297335 21.183495 16.426799 21.080816 16.551799 C 20.975906 16.676799 20.866531 16.795103 20.748227 16.90671 C 20.629924 17.018317 20.504923 17.123228 20.375459 17.21921 C 20.243763 17.315192 20.107602 17.402246 19.966977 17.482603 C 20.002691 17.754924 20.009388 18.025014 19.989298 18.299567 C 19.966977 18.571889 19.920102 18.839746 19.844209 19.100906 C 19.768316 19.364299 19.66787 19.616532 19.540638 19.857603 C 19.413406 20.100907 19.26162 20.326353 19.087513 20.538407 C 18.913406 20.748228 18.721441 20.940192 18.507155 21.112067 C 18.295102 21.283942 18.067423 21.431264 17.82412 21.556264 C 17.580816 21.681264 17.326352 21.779478 17.062959 21.850907 C 16.799566 21.924567 16.531709 21.96921 16.259387 21.987067 C 15.987066 22.004925 15.714745 21.995996 15.444655 21.955817 C 15.172334 21.917871 14.908941 21.853139 14.652244 21.761621 C 14.393316 21.670103 14.14778 21.5518 13.915637 21.408942 C 13.681262 21.268317 13.464744 21.103139 13.266084 20.915639 C 13.067423 20.728139 12.888851 20.522782 12.730369 20.299567 C 12.574119 20.076353 12.440191 19.839746 12.330816 19.589746 C 12.221441 19.337514 12.138851 19.078585 12.083048 18.810728 C 12.027244 18.542871 12.000459 18.272781 12.000459 18.00046 Z M 12.000459 5.000459 " transform="matrix(1.75,0,0,1.75,68.964043,68.964041)"/><path style="fill:none;stroke-width:2;stroke-linecap:round;stroke-linejoin:round;stroke:#2563e6;stroke-opacity:1;stroke-miterlimit:4;" d="M 15.000459 13.00046 C 14.580816 12.853138 14.190191 12.647781 13.833048 12.384388 C 13.473673 12.120995 13.161173 11.810727 12.893316 11.455817 C 12.625459 11.098674 12.415637 10.712513 12.263851 10.29287 C 12.112066 9.875459 12.025012 9.444656 12.000459 9.000459 C 11.975905 9.444656 11.886619 9.875459 11.734833 10.29287 C 11.583048 10.712513 11.373226 11.098674 11.107601 11.455817 C 10.839744 11.810727 10.527244 12.120995 10.167869 12.384388 C 9.808494 12.647781 9.420101 12.853138 9.000458 13.00046 " transform="matrix(1.75,0,0,1.75,68.964043,68.964041)"/><path style="fill:none;stroke-width:2;stroke-linecap:round;stroke-linejoin:round;stroke:#2563e6;stroke-opacity:1;stroke-miterlimit:4;" d="M 17.598673 6.500459 C 17.844209 6.07412 17.978138 5.61653 17.998227 5.125459 " transform="matrix(1.75,0,0,1.75,68.964043,68.964041)"/><path style="fill:none;stroke-width:2;stroke-linecap:round;stroke-linejoin:round;stroke:#2563e6;stroke-opacity:1;stroke-miterlimit:4;" d="M 6.00269 5.125459 C 6.022779 5.61653 6.156708 6.07412 6.400012 6.500459 " transform="matrix(1.75,0,0,1.75,68.964043,68.964041)"/><path style="fill:none;stroke-width:2;stroke-linecap:round;stroke-linejoin:round;stroke:#2563e6;stroke-opacity:1;stroke-miterlimit:4;" d="M 3.475904 10.895549 C 3.661172 10.745995 3.855369 10.614299 4.062958 10.500459 " transform="matrix(1.75,0,0,1.75,68.964043,68.964041)"/><path style="fill:none;stroke-width:2;stroke-linecap:round;stroke-linejoin:round;stroke:#2563e6;stroke-opacity:1;stroke-miterlimit:4;" d="M 19.937959 10.500459 C 20.145548 10.614299 20.339745 10.745995 20.522781 10.895549 " transform="matrix(1.75,0,0,1.75,68.964043,68.964041)"/><path style="fill:none;stroke-width:2;stroke-linecap:round;stroke-linejoin:round;stroke:#2563e6;stroke-opacity:1;stroke-miterlimit:4;" d="M 6.000458 18.00046 C 5.299565 18.00046 4.643315 17.828585 4.03394 17.484835 " transform="matrix(1.75,0,0,1.75,68.964043,68.964041)"/><path style="fill:none;stroke-width:2;stroke-linecap:round;stroke-linejoin:round;stroke:#2563e6;stroke-opacity:1;stroke-miterlimit:4;" d="M 19.966977 17.484835 C 19.357602 17.828585 18.701352 18.00046 18.000459 18.00046 " transform="matrix(1.75,0,0,1.75,68.964043,68.964041)"/></g></svg>