<svg xmlns="http://www.w3.org/2000/svg" xmlns:xlink="http://www.w3.org/1999/xlink" width="500" zoomAndPan="magnify" viewBox="0 0 375 374.999991" height="500" preserveAspectRatio="xMidYMid meet" version="1.0"><defs><g/></defs><path stroke-linecap="round" transform="matrix(2.391647, 0, 0, 2.391647, 3.45992, 159.005819)" fill="none" stroke-linejoin="round" d="M 12.000195 5.000329 C 12.000195 4.799435 11.980596 4.601807 11.94303 4.405812 C 11.903831 4.209818 11.845033 4.018723 11.768268 3.834161 C 11.691503 3.6496 11.596773 3.474838 11.484076 3.309876 C 11.373012 3.14328 11.245616 2.991384 11.101886 2.850922 C 10.95979 2.710459 10.804628 2.586329 10.636399 2.476899 C 10.469804 2.367468 10.291775 2.276004 10.107214 2.202506 C 9.921019 2.129008 9.729924 2.07511 9.532296 2.039177 C 9.336302 2.003245 9.13704 1.986912 8.937779 1.991812 C 8.736885 1.996712 8.539257 2.019578 8.344896 2.063677 C 8.148901 2.107775 7.961073 2.16984 7.778145 2.251505 C 7.595216 2.333169 7.422088 2.431167 7.260392 2.54713 C 7.097063 2.663093 6.946801 2.793757 6.809605 2.940753 C 6.674042 3.086115 6.553178 3.244544 6.447015 3.414406 C 6.342484 3.584268 6.25592 3.76393 6.185688 3.951758 C 6.11709 4.137953 6.066458 4.330681 6.035426 4.528309 C 6.004393 4.725937 5.994594 4.925198 6.00276 5.124459 C 5.855764 5.162025 5.712035 5.207757 5.571572 5.261655 C 5.429476 5.317187 5.29228 5.377619 5.15835 5.44785 C 5.02442 5.518082 4.893757 5.594846 4.767994 5.678144 C 4.642231 5.763075 4.523001 5.854539 4.407037 5.952536 C 4.292707 6.050534 4.183277 6.155064 4.078746 6.264494 C 3.975849 6.375558 3.879485 6.491521 3.789654 6.612385 C 3.69819 6.733248 3.614893 6.860645 3.539761 6.991308 C 3.462997 7.121971 3.396032 7.2559 3.3356 7.39473 C 3.273535 7.533559 3.22127 7.675655 3.177171 7.819385 C 3.133072 7.964748 3.095507 8.11011 3.067741 8.258739 C 3.039975 8.407369 3.020376 8.557631 3.008943 8.707894 C 2.999143 8.85979 2.995876 9.010052 3.002409 9.161948 C 3.008943 9.31221 3.023642 9.462473 3.046508 9.612735 C 3.069374 9.761365 3.100407 9.909994 3.141239 10.055357 C 3.180438 10.200719 3.229436 10.344449 3.284968 10.484911 C 3.342133 10.625374 3.405832 10.76257 3.477696 10.894867 C 3.3503 10.997764 3.23107 11.107194 3.118373 11.223158 C 3.005676 11.340755 2.901146 11.463251 2.803148 11.593914 C 2.706784 11.722944 2.616953 11.858507 2.535289 11.99897 C 2.453625 12.139433 2.38176 12.284795 2.318062 12.433424 C 2.254363 12.583687 2.200465 12.735583 2.156366 12.892379 C 2.110634 13.047541 2.074702 13.20597 2.050202 13.366032 C 2.02407 13.526094 2.007737 13.68779 2.001204 13.849485 C 1.996304 14.012814 1.99957 14.17451 2.012637 14.336205 C 2.027336 14.497901 2.050202 14.657963 2.082868 14.816392 C 2.117167 14.976454 2.159633 15.131617 2.211898 15.285146 C 2.264163 15.440308 2.324595 15.588938 2.394826 15.735934 C 2.466691 15.881296 2.545089 16.023392 2.633286 16.160589 C 2.719851 16.296151 2.816215 16.426815 2.919112 16.552578 C 3.023642 16.676708 3.134706 16.795938 3.252303 16.907001 C 3.369899 17.018065 3.494029 17.122595 3.624692 17.218959 C 3.755355 17.315323 3.890918 17.403521 4.033014 17.483552 C 3.998715 17.754678 3.990549 18.025804 4.011782 18.298563 C 4.031381 18.571322 4.08038 18.839181 4.155511 19.102141 C 4.232276 19.363467 4.333539 19.616627 4.460936 19.858353 C 4.586699 20.10008 4.738595 20.327107 4.911723 20.537801 C 5.084852 20.748496 5.279213 20.93959 5.491541 21.111086 C 5.705502 21.282581 5.932529 21.43121 6.175889 21.55534 C 6.419249 21.681103 6.672408 21.7791 6.937001 21.850965 C 7.19996 21.924463 7.46782 21.970195 7.740579 21.986528 C 8.013338 22.004494 8.286097 21.994695 8.55559 21.957129 C 8.826716 21.919563 9.091308 21.854232 9.347735 21.761134 C 9.605794 21.66967 9.850788 21.552073 10.084348 21.409977 C 10.317908 21.267881 10.533502 21.102919 10.734397 20.915091 C 10.933658 20.728896 11.111686 20.523102 11.270115 20.300975 C 11.426911 20.077214 11.56084 19.840387 11.668637 19.588861 C 11.778068 19.338968 11.859732 19.079275 11.915264 18.811416 C 11.972429 18.543556 12.000195 18.274064 12.000195 17.999671 Z M 12.000195 5.000329 " stroke="#2563e6" stroke-width="2" stroke-opacity="1" stroke-miterlimit="4"/><path stroke-linecap="round" transform="matrix(2.391647, 0, 0, 2.391647, 3.45992, 159.005819)" fill="none" stroke-linejoin="round" d="M 12.000195 5.000329 C 12.000195 4.799435 12.018161 4.601807 12.05736 4.405812 C 12.096559 4.209818 12.155357 4.018723 12.232122 3.834161 C 12.308886 3.6496 12.403617 3.474838 12.516314 3.309876 C 12.627378 3.14328 12.754774 2.991384 12.898504 2.850922 C 13.0406 2.710459 13.195762 2.586329 13.362357 2.476899 C 13.530586 2.367468 13.706981 2.276004 13.893176 2.202506 C 14.079371 2.129008 14.270466 2.07511 14.468094 2.039177 C 14.664088 2.003245 14.863349 1.986912 15.062611 1.991812 C 15.261872 1.996712 15.4595 2.019578 15.655494 2.063677 C 15.849856 2.107775 16.039317 2.16984 16.222245 2.251505 C 16.405174 2.333169 16.576669 2.431167 16.739998 2.54713 C 16.903327 2.663093 17.053589 2.793757 17.189152 2.940753 C 17.326348 3.086115 17.447212 3.244544 17.551742 3.414406 C 17.657906 3.584268 17.74447 3.76393 17.814702 3.951758 C 17.8833 4.137953 17.933932 4.330681 17.964964 4.528309 C 17.994363 4.725937 18.005796 4.925198 17.99763 5.124459 C 18.142993 5.162025 18.286722 5.207757 18.428818 5.261655 C 18.569281 5.317187 18.70811 5.377619 18.84204 5.44785 C 18.97597 5.518082 19.106633 5.594846 19.232396 5.678144 C 19.356526 5.763075 19.477389 5.854539 19.593353 5.952536 C 19.707683 6.050534 19.817113 6.155064 19.92001 6.264494 C 20.024541 6.375558 20.120905 6.491521 20.210736 6.612385 C 20.300566 6.733248 20.383864 6.860645 20.460629 6.991308 C 20.53576 7.121971 20.604358 7.2559 20.66479 7.39473 C 20.725221 7.533559 20.77912 7.675655 20.823219 7.819385 C 20.867318 7.964748 20.90325 8.11011 20.932649 8.258739 C 20.960415 8.407369 20.980014 8.557631 20.989814 8.707894 C 21.001247 8.85979 21.004514 9.010052 20.997981 9.161948 C 20.991447 9.31221 20.976748 9.462473 20.953882 9.612735 C 20.931016 9.761365 20.89835 9.909994 20.859151 10.055357 C 20.818319 10.200719 20.770953 10.344449 20.715422 10.484911 C 20.658257 10.625374 20.594558 10.76257 20.522694 10.894867 C 20.648457 10.997764 20.767687 11.107194 20.880384 11.223158 C 20.993081 11.340755 21.099244 11.463251 21.195608 11.593914 C 21.293606 11.722944 21.383437 11.858507 21.465101 11.99897 C 21.545132 12.139433 21.61863 12.284795 21.682328 12.433424 C 21.744393 12.583687 21.799925 12.735583 21.844024 12.892379 C 21.889756 13.047541 21.924055 13.20597 21.950188 13.366032 C 21.97632 13.526094 21.992653 13.68779 21.997553 13.849485 C 22.004086 14.012814 22.00082 14.17451 21.98612 14.336205 C 21.973054 14.497901 21.950188 14.657963 21.915889 14.816392 C 21.883223 14.976454 21.840757 15.131617 21.788492 15.285146 C 21.736227 15.440308 21.674162 15.588938 21.603931 15.735934 C 21.533699 15.881296 21.455301 16.023392 21.367104 16.160589 C 21.278906 16.296151 21.184175 16.426815 21.079645 16.552578 C 20.976748 16.676708 20.865684 16.795938 20.748087 16.907001 C 20.630491 17.018065 20.506361 17.122595 20.375698 17.218959 C 20.245035 17.315323 20.107838 17.403521 19.967376 17.483552 C 20.001675 17.754678 20.009841 18.025804 19.988608 18.298563 C 19.967376 18.571322 19.92001 18.839181 19.844879 19.102141 C 19.768114 19.363467 19.666851 19.616627 19.539454 19.858353 C 19.412058 20.10008 19.261795 20.327107 19.088666 20.537801 C 18.913905 20.748496 18.721177 20.93959 18.508849 21.111086 C 18.294888 21.282581 18.067861 21.43121 17.824501 21.55534 C 17.581141 21.681103 17.326348 21.7791 17.063389 21.850965 C 16.800429 21.924463 16.53257 21.970195 16.259811 21.986528 C 15.985419 22.004494 15.714293 21.994695 15.443167 21.957129 C 15.173674 21.919563 14.909082 21.854232 14.651022 21.761134 C 14.394596 21.66967 14.149602 21.552073 13.916042 21.409977 C 13.682482 21.267881 13.465255 21.102919 13.265993 20.915091 C 13.066732 20.728896 12.888704 20.523102 12.730275 20.300975 C 12.573479 20.077214 12.43955 19.840387 12.331753 19.588861 C 12.222322 19.338968 12.139024 19.079275 12.083493 18.811416 C 12.027961 18.543556 12.000195 18.274064 12.000195 17.999671 Z M 12.000195 5.000329 " stroke="#2563e6" stroke-width="2" stroke-opacity="1" stroke-miterlimit="4"/><path stroke-linecap="round" transform="matrix(2.391647, 0, 0, 2.391647, 3.45992, 159.005819)" fill="none" stroke-linejoin="round" d="M 15.000546 13.000176 C 14.580791 12.851546 14.190435 12.647385 13.832745 12.384426 C 13.473421 12.119833 13.15983 11.811142 12.893604 11.455085 C 12.625744 11.099028 12.416684 10.711939 12.264788 10.293817 C 12.112892 9.875695 12.024694 9.444507 12.000195 9.000252 C 11.975696 9.444507 11.887498 9.875695 11.735602 10.293817 C 11.583706 10.711939 11.373012 11.099028 11.106786 11.455085 C 10.838927 11.811142 10.526969 12.119833 10.167645 12.384426 C 9.808322 12.647385 9.419599 12.851546 8.999844 13.000176 " stroke="#2563e6" stroke-width="2" stroke-opacity="1" stroke-miterlimit="4"/><path stroke-linecap="round" transform="matrix(2.391647, 0, 0, 2.391647, 3.45992, 159.005819)" fill="none" stroke-linejoin="round" d="M 17.599107 6.499688 C 17.844101 6.075033 17.97803 5.616079 17.99763 5.124459 " stroke="#2563e6" stroke-width="2" stroke-opacity="1" stroke-miterlimit="4"/><path stroke-linecap="round" transform="matrix(2.391647, 0, 0, 2.391647, 3.45992, 159.005819)" fill="none" stroke-linejoin="round" d="M 6.00276 5.124459 C 6.02236 5.616079 6.156289 6.075033 6.401282 6.499688 " stroke="#2563e6" stroke-width="2" stroke-opacity="1" stroke-miterlimit="4"/><path stroke-linecap="round" transform="matrix(2.391647, 0, 0, 2.391647, 3.45992, 159.005819)" fill="none" stroke-linejoin="round" d="M 3.477696 10.8965 C 3.660625 10.746238 3.854986 10.613941 4.062414 10.499611 " stroke="#2563e6" stroke-width="2" stroke-opacity="1" stroke-miterlimit="4"/><path stroke-linecap="round" transform="matrix(2.391647, 0, 0, 2.391647, 3.45992, 159.005819)" fill="none" stroke-linejoin="round" d="M 19.937976 10.499611 C 20.145404 10.613941 20.339765 10.746238 20.522694 10.8965 " stroke="#2563e6" stroke-width="2" stroke-opacity="1" stroke-miterlimit="4"/><path stroke-linecap="round" transform="matrix(2.391647, 0, 0, 2.391647, 3.45992, 159.005819)" fill="none" stroke-linejoin="round" d="M 5.999494 17.999671 C 5.298813 17.999671 4.643864 17.828176 4.033014 17.483552 " stroke="#2563e6" stroke-width="2" stroke-opacity="1" stroke-miterlimit="4"/><path stroke-linecap="round" transform="matrix(2.391647, 0, 0, 2.391647, 3.45992, 159.005819)" fill="none" stroke-linejoin="round" d="M 19.967376 17.483552 C 19.356526 17.828176 18.701577 17.999671 17.999263 17.999671 " stroke="#2563e6" stroke-width="2" stroke-opacity="1" stroke-miterlimit="4"/><g fill="#000000" fill-opacity="1"><g transform="translate(62.41013, 200.654033)"><g><path d="M 17.515625 -19.828125 C 17.410156 -20.921875 16.941406 -21.769531 16.109375 -22.375 C 15.273438 -22.988281 14.160156 -23.296875 12.765625 -23.296875 C 11.316406 -23.296875 10.207031 -23 9.4375 -22.40625 C 8.675781 -21.820312 8.296875 -21.078125 8.296875 -20.171875 C 8.273438 -19.179688 8.703125 -18.429688 9.578125 -17.921875 C 10.453125 -17.410156 11.488281 -17.015625 12.6875 -16.734375 L 15.1875 -16.125 C 16.800781 -15.769531 18.234375 -15.242188 19.484375 -14.546875 C 20.742188 -13.859375 21.734375 -12.972656 22.453125 -11.890625 C 23.171875 -10.804688 23.53125 -9.492188 23.53125 -7.953125 C 23.519531 -5.398438 22.566406 -3.367188 20.671875 -1.859375 C 18.773438 -0.359375 16.128906 0.390625 12.734375 0.390625 C 9.347656 0.390625 6.648438 -0.375 4.640625 -1.90625 C 2.628906 -3.445312 1.585938 -5.722656 1.515625 -8.734375 L 7.21875 -8.734375 C 7.3125 -7.335938 7.859375 -6.285156 8.859375 -5.578125 C 9.867188 -4.878906 11.140625 -4.53125 12.671875 -4.53125 C 14.160156 -4.53125 15.347656 -4.847656 16.234375 -5.484375 C 17.128906 -6.117188 17.582031 -6.945312 17.59375 -7.96875 C 17.582031 -8.90625 17.171875 -9.625 16.359375 -10.125 C 15.546875 -10.632812 14.382812 -11.070312 12.875 -11.4375 L 9.84375 -12.203125 C 7.488281 -12.765625 5.628906 -13.65625 4.265625 -14.875 C 2.910156 -16.101562 2.238281 -17.738281 2.25 -19.78125 C 2.238281 -21.46875 2.6875 -22.941406 3.59375 -24.203125 C 4.507812 -25.472656 5.765625 -26.457031 7.359375 -27.15625 C 8.953125 -27.851562 10.765625 -28.203125 12.796875 -28.203125 C 14.867188 -28.203125 16.675781 -27.847656 18.21875 -27.140625 C 19.757812 -26.441406 20.957031 -25.460938 21.8125 -24.203125 C 22.675781 -22.941406 23.125 -21.484375 23.15625 -19.828125 Z M 17.515625 -19.828125 "/></g></g></g><g fill="#000000" fill-opacity="1"><g transform="translate(87.468308, 200.654033)"><g><path d="M 11.734375 0.40625 C 9.597656 0.40625 7.757812 -0.046875 6.21875 -0.953125 C 4.6875 -1.867188 3.507812 -3.132812 2.6875 -4.75 C 1.875 -6.375 1.46875 -8.242188 1.46875 -10.359375 C 1.46875 -12.492188 1.878906 -14.367188 2.703125 -15.984375 C 3.535156 -17.597656 4.71875 -18.859375 6.25 -19.765625 C 7.78125 -20.679688 9.601562 -21.140625 11.71875 -21.140625 C 13.53125 -21.140625 15.125 -20.804688 16.5 -20.140625 C 17.875 -19.484375 18.957031 -18.554688 19.75 -17.359375 C 20.539062 -16.171875 20.976562 -14.769531 21.0625 -13.15625 L 15.59375 -13.15625 C 15.445312 -14.195312 15.039062 -15.035156 14.375 -15.671875 C 13.71875 -16.304688 12.863281 -16.625 11.8125 -16.625 C 10.46875 -16.625 9.382812 -16.082031 8.5625 -15 C 7.75 -13.925781 7.34375 -12.40625 7.34375 -10.4375 C 7.34375 -8.445312 7.75 -6.90625 8.5625 -5.8125 C 9.375 -4.71875 10.457031 -4.171875 11.8125 -4.171875 C 12.800781 -4.171875 13.632812 -4.472656 14.3125 -5.078125 C 15 -5.679688 15.425781 -6.539062 15.59375 -7.65625 L 21.0625 -7.65625 C 20.96875 -6.0625 20.535156 -4.65625 19.765625 -3.4375 C 18.992188 -2.21875 17.925781 -1.269531 16.5625 -0.59375 C 15.207031 0.0703125 13.597656 0.40625 11.734375 0.40625 Z M 11.734375 0.40625 "/></g></g></g><g fill="#000000" fill-opacity="1"><g transform="translate(109.94458, 200.654033)"><g><path d="M 8.09375 -12.0625 L 8.09375 0 L 2.3125 0 L 2.3125 -27.828125 L 7.9375 -27.828125 L 7.9375 -17.1875 L 8.1875 -17.1875 C 8.664062 -18.414062 9.425781 -19.378906 10.46875 -20.078125 C 11.519531 -20.785156 12.835938 -21.140625 14.421875 -21.140625 C 16.585938 -21.140625 18.332031 -20.441406 19.65625 -19.046875 C 20.976562 -17.648438 21.640625 -15.734375 21.640625 -13.296875 L 21.640625 0 L 15.84375 0 L 15.84375 -12.25 C 15.851562 -13.539062 15.53125 -14.539062 14.875 -15.25 C 14.21875 -15.96875 13.300781 -16.328125 12.125 -16.328125 C 10.945312 -16.328125 9.984375 -15.953125 9.234375 -15.203125 C 8.484375 -14.460938 8.101562 -13.414062 8.09375 -12.0625 Z M 8.09375 -12.0625 "/></g></g></g><g fill="#000000" fill-opacity="1"><g transform="translate(133.834105, 200.654033)"><g><path d="M 11.828125 0.40625 C 9.679688 0.40625 7.832031 -0.03125 6.28125 -0.90625 C 4.738281 -1.78125 3.550781 -3.019531 2.71875 -4.625 C 1.882812 -6.226562 1.46875 -8.132812 1.46875 -10.34375 C 1.46875 -12.488281 1.882812 -14.367188 2.71875 -15.984375 C 3.550781 -17.609375 4.722656 -18.875 6.234375 -19.78125 C 7.753906 -20.6875 9.539062 -21.140625 11.59375 -21.140625 C 13.425781 -21.140625 15.082031 -20.75 16.5625 -19.96875 C 18.050781 -19.195312 19.226562 -18.023438 20.09375 -16.453125 C 20.96875 -14.878906 21.40625 -12.910156 21.40625 -10.546875 L 21.40625 -8.953125 L 7.1875 -8.953125 L 7.1875 -8.9375 C 7.1875 -7.382812 7.613281 -6.15625 8.46875 -5.25 C 9.320312 -4.351562 10.472656 -3.90625 11.921875 -3.90625 C 12.890625 -3.90625 13.722656 -4.109375 14.421875 -4.515625 C 15.128906 -4.929688 15.628906 -5.535156 15.921875 -6.328125 L 21.28125 -5.984375 C 20.875 -4.046875 19.835938 -2.492188 18.171875 -1.328125 C 16.515625 -0.171875 14.398438 0.40625 11.828125 0.40625 Z M 7.1875 -12.546875 L 15.953125 -12.546875 C 15.941406 -13.785156 15.539062 -14.804688 14.75 -15.609375 C 13.96875 -16.421875 12.945312 -16.828125 11.6875 -16.828125 C 10.394531 -16.828125 9.335938 -16.410156 8.515625 -15.578125 C 7.691406 -14.742188 7.25 -13.734375 7.1875 -12.546875 Z M 7.1875 -12.546875 "/></g></g></g><g fill="#000000" fill-opacity="1"><g transform="translate(156.704453, 200.654033)"><g><path d="M 10 0.34375 C 8.414062 0.34375 6.984375 -0.0664062 5.703125 -0.890625 C 4.429688 -1.710938 3.414062 -2.921875 2.65625 -4.515625 C 1.90625 -6.117188 1.53125 -8.082031 1.53125 -10.40625 C 1.53125 -12.800781 1.914062 -14.789062 2.6875 -16.375 C 3.46875 -17.96875 4.5 -19.160156 5.78125 -19.953125 C 7.0625 -20.742188 8.460938 -21.140625 9.984375 -21.140625 C 11.148438 -21.140625 12.125 -20.941406 12.90625 -20.546875 C 13.695312 -20.160156 14.332031 -19.675781 14.8125 -19.09375 C 15.300781 -18.507812 15.671875 -17.929688 15.921875 -17.359375 L 16.109375 -17.359375 L 16.109375 -27.828125 L 21.875 -27.828125 L 21.875 0 L 16.171875 0 L 16.171875 -3.34375 L 15.921875 -3.34375 C 15.660156 -2.757812 15.28125 -2.1875 14.78125 -1.625 C 14.28125 -1.0625 13.640625 -0.59375 12.859375 -0.21875 C 12.078125 0.15625 11.125 0.34375 10 0.34375 Z M 11.828125 -4.265625 C 13.222656 -4.265625 14.300781 -4.828125 15.0625 -5.953125 C 15.832031 -7.085938 16.21875 -8.582031 16.21875 -10.4375 C 16.21875 -12.300781 15.835938 -13.78125 15.078125 -14.875 C 14.316406 -15.976562 13.234375 -16.53125 11.828125 -16.53125 C 10.398438 -16.53125 9.3125 -15.96875 8.5625 -14.84375 C 7.820312 -13.71875 7.453125 -12.25 7.453125 -10.4375 C 7.453125 -8.613281 7.828125 -7.128906 8.578125 -5.984375 C 9.328125 -4.835938 10.410156 -4.265625 11.828125 -4.265625 Z M 11.828125 -4.265625 "/></g></g></g><g fill="#000000" fill-opacity="1"><g transform="translate(181.015241, 200.654033)"><g><path d="M 15.6875 -8.890625 L 15.6875 -20.875 L 21.484375 -20.875 L 21.484375 0 L 15.921875 0 L 15.921875 -3.796875 L 15.703125 -3.796875 C 15.234375 -2.566406 14.453125 -1.582031 13.359375 -0.84375 C 12.273438 -0.101562 10.945312 0.265625 9.375 0.265625 C 7.269531 0.265625 5.566406 -0.429688 4.265625 -1.828125 C 2.972656 -3.222656 2.320312 -5.140625 2.3125 -7.578125 L 2.3125 -20.875 L 8.09375 -20.875 L 8.09375 -8.609375 C 8.101562 -7.378906 8.429688 -6.40625 9.078125 -5.6875 C 9.734375 -4.976562 10.613281 -4.625 11.71875 -4.625 C 12.757812 -4.625 13.679688 -4.984375 14.484375 -5.703125 C 15.296875 -6.429688 15.695312 -7.492188 15.6875 -8.890625 Z M 15.6875 -8.890625 "/></g></g></g><g fill="#000000" fill-opacity="1"><g transform="translate(204.809645, 200.654033)"><g><path d="M 8.09375 -27.828125 L 8.09375 0 L 2.3125 0 L 2.3125 -27.828125 Z M 8.09375 -27.828125 "/></g></g></g><g fill="#000000" fill-opacity="1"><g transform="translate(215.218855, 200.654033)"><g><path d="M 11.828125 0.40625 C 9.679688 0.40625 7.832031 -0.03125 6.28125 -0.90625 C 4.738281 -1.78125 3.550781 -3.019531 2.71875 -4.625 C 1.882812 -6.226562 1.46875 -8.132812 1.46875 -10.34375 C 1.46875 -12.488281 1.882812 -14.367188 2.71875 -15.984375 C 3.550781 -17.609375 4.722656 -18.875 6.234375 -19.78125 C 7.753906 -20.6875 9.539062 -21.140625 11.59375 -21.140625 C 13.425781 -21.140625 15.082031 -20.75 16.5625 -19.96875 C 18.050781 -19.195312 19.226562 -18.023438 20.09375 -16.453125 C 20.96875 -14.878906 21.40625 -12.910156 21.40625 -10.546875 L 21.40625 -8.953125 L 7.1875 -8.953125 L 7.1875 -8.9375 C 7.1875 -7.382812 7.613281 -6.15625 8.46875 -5.25 C 9.320312 -4.351562 10.472656 -3.90625 11.921875 -3.90625 C 12.890625 -3.90625 13.722656 -4.109375 14.421875 -4.515625 C 15.128906 -4.929688 15.628906 -5.535156 15.921875 -6.328125 L 21.28125 -5.984375 C 20.875 -4.046875 19.835938 -2.492188 18.171875 -1.328125 C 16.515625 -0.171875 14.398438 0.40625 11.828125 0.40625 Z M 7.1875 -12.546875 L 15.953125 -12.546875 C 15.941406 -13.785156 15.539062 -14.804688 14.75 -15.609375 C 13.96875 -16.421875 12.945312 -16.828125 11.6875 -16.828125 C 10.394531 -16.828125 9.335938 -16.410156 8.515625 -15.578125 C 7.691406 -14.742188 7.25 -13.734375 7.1875 -12.546875 Z M 7.1875 -12.546875 "/></g></g></g><g fill="#000000" fill-opacity="1"><g transform="translate(238.089204, 200.654033)"><g><path d="M 20.875 -18.828125 C 20.5 -20.140625 19.8125 -21.160156 18.8125 -21.890625 C 17.8125 -22.628906 16.554688 -23 15.046875 -23 C 12.910156 -23 11.179688 -22.210938 9.859375 -20.640625 C 8.546875 -19.078125 7.890625 -16.84375 7.890625 -13.9375 C 7.890625 -11.03125 8.535156 -8.785156 9.828125 -7.203125 C 11.128906 -5.617188 12.882812 -4.828125 15.09375 -4.828125 C 17.050781 -4.828125 18.585938 -5.332031 19.703125 -6.34375 C 20.828125 -7.363281 21.40625 -8.738281 21.4375 -10.46875 L 15.46875 -10.46875 L 15.46875 -14.890625 L 27.109375 -14.890625 L 27.109375 -11.390625 C 27.109375 -8.953125 26.59375 -6.851562 25.5625 -5.09375 C 24.53125 -3.332031 23.109375 -1.976562 21.296875 -1.03125 C 19.492188 -0.09375 17.414062 0.375 15.0625 0.375 C 12.457031 0.375 10.164062 -0.195312 8.1875 -1.34375 C 6.21875 -2.5 4.679688 -4.144531 3.578125 -6.28125 C 2.472656 -8.414062 1.921875 -10.953125 1.921875 -13.890625 C 1.921875 -16.898438 2.492188 -19.472656 3.640625 -21.609375 C 4.796875 -23.742188 6.359375 -25.375 8.328125 -26.5 C 10.296875 -27.632812 12.503906 -28.203125 14.953125 -28.203125 C 17.046875 -28.203125 18.941406 -27.800781 20.640625 -27 C 22.347656 -26.207031 23.742188 -25.109375 24.828125 -23.703125 C 25.921875 -22.296875 26.59375 -20.671875 26.84375 -18.828125 Z M 20.875 -18.828125 "/></g></g></g><g fill="#000000" fill-opacity="1"><g transform="translate(267.196918, 200.654033)"><g><path d="M 11.828125 0.40625 C 9.679688 0.40625 7.832031 -0.03125 6.28125 -0.90625 C 4.738281 -1.78125 3.550781 -3.019531 2.71875 -4.625 C 1.882812 -6.226562 1.46875 -8.132812 1.46875 -10.34375 C 1.46875 -12.488281 1.882812 -14.367188 2.71875 -15.984375 C 3.550781 -17.609375 4.722656 -18.875 6.234375 -19.78125 C 7.753906 -20.6875 9.539062 -21.140625 11.59375 -21.140625 C 13.425781 -21.140625 15.082031 -20.75 16.5625 -19.96875 C 18.050781 -19.195312 19.226562 -18.023438 20.09375 -16.453125 C 20.96875 -14.878906 21.40625 -12.910156 21.40625 -10.546875 L 21.40625 -8.953125 L 7.1875 -8.953125 L 7.1875 -8.9375 C 7.1875 -7.382812 7.613281 -6.15625 8.46875 -5.25 C 9.320312 -4.351562 10.472656 -3.90625 11.921875 -3.90625 C 12.890625 -3.90625 13.722656 -4.109375 14.421875 -4.515625 C 15.128906 -4.929688 15.628906 -5.535156 15.921875 -6.328125 L 21.28125 -5.984375 C 20.875 -4.046875 19.835938 -2.492188 18.171875 -1.328125 C 16.515625 -0.171875 14.398438 0.40625 11.828125 0.40625 Z M 7.1875 -12.546875 L 15.953125 -12.546875 C 15.941406 -13.785156 15.539062 -14.804688 14.75 -15.609375 C 13.96875 -16.421875 12.945312 -16.828125 11.6875 -16.828125 C 10.394531 -16.828125 9.335938 -16.410156 8.515625 -15.578125 C 7.691406 -14.742188 7.25 -13.734375 7.1875 -12.546875 Z M 7.1875 -12.546875 "/></g></g></g><g fill="#000000" fill-opacity="1"><g transform="translate(290.067266, 200.654033)"><g><path d="M 8.09375 -12.0625 L 8.09375 0 L 2.3125 0 L 2.3125 -20.875 L 7.828125 -20.875 L 7.828125 -17.1875 L 8.078125 -17.1875 C 8.546875 -18.40625 9.320312 -19.367188 10.40625 -20.078125 C 11.488281 -20.785156 12.800781 -21.140625 14.34375 -21.140625 C 16.519531 -21.140625 18.265625 -20.4375 19.578125 -19.03125 C 20.890625 -17.632812 21.546875 -15.722656 21.546875 -13.296875 L 21.546875 0 L 15.765625 0 L 15.765625 -12.25 C 15.773438 -13.53125 15.445312 -14.53125 14.78125 -15.25 C 14.125 -15.96875 13.210938 -16.328125 12.046875 -16.328125 C 10.878906 -16.328125 9.929688 -15.953125 9.203125 -15.203125 C 8.472656 -14.460938 8.101562 -13.414062 8.09375 -12.0625 Z M 8.09375 -12.0625 "/></g></g></g><g fill="#000000" fill-opacity="1"><g transform="translate(313.86167, 200.654033)"><g><path d="M 2.3125 0 L 2.3125 -20.875 L 8.09375 -20.875 L 8.09375 0 Z M 5.21875 -23.5625 C 4.363281 -23.5625 3.628906 -23.847656 3.015625 -24.421875 C 2.398438 -24.992188 2.09375 -25.6875 2.09375 -26.5 C 2.09375 -27.300781 2.398438 -27.988281 3.015625 -28.5625 C 3.628906 -29.132812 4.363281 -29.421875 5.21875 -29.421875 C 6.070312 -29.421875 6.804688 -29.132812 7.421875 -28.5625 C 8.035156 -27.988281 8.34375 -27.300781 8.34375 -26.5 C 8.34375 -25.6875 8.035156 -24.992188 7.421875 -24.421875 C 6.804688 -23.847656 6.070312 -23.5625 5.21875 -23.5625 Z M 5.21875 -23.5625 "/></g></g></g><g fill="#000000" fill-opacity="1"><g transform="translate(324.27088, 200.654033)"><g><path d="M 15.6875 -8.890625 L 15.6875 -20.875 L 21.484375 -20.875 L 21.484375 0 L 15.921875 0 L 15.921875 -3.796875 L 15.703125 -3.796875 C 15.234375 -2.566406 14.453125 -1.582031 13.359375 -0.84375 C 12.273438 -0.101562 10.945312 0.265625 9.375 0.265625 C 7.269531 0.265625 5.566406 -0.429688 4.265625 -1.828125 C 2.972656 -3.222656 2.320312 -5.140625 2.3125 -7.578125 L 2.3125 -20.875 L 8.09375 -20.875 L 8.09375 -8.609375 C 8.101562 -7.378906 8.429688 -6.40625 9.078125 -5.6875 C 9.734375 -4.976562 10.613281 -4.625 11.71875 -4.625 C 12.757812 -4.625 13.679688 -4.984375 14.484375 -5.703125 C 15.296875 -6.429688 15.695312 -7.492188 15.6875 -8.890625 Z M 15.6875 -8.890625 "/></g></g></g><g fill="#000000" fill-opacity="1"><g transform="translate(348.065285, 200.654033)"><g><path d="M 19.671875 -14.921875 L 14.375 -14.59375 C 14.226562 -15.257812 13.859375 -15.832031 13.265625 -16.3125 C 12.679688 -16.800781 11.890625 -17.046875 10.890625 -17.046875 C 9.992188 -17.046875 9.234375 -16.851562 8.609375 -16.46875 C 7.984375 -16.09375 7.675781 -15.59375 7.6875 -14.96875 C 7.675781 -14.476562 7.875 -14.054688 8.28125 -13.703125 C 8.6875 -13.359375 9.375 -13.082031 10.34375 -12.875 L 14.125 -12.125 C 18.132812 -11.300781 20.144531 -9.414062 20.15625 -6.46875 C 20.15625 -5.101562 19.753906 -3.898438 18.953125 -2.859375 C 18.148438 -1.828125 17.050781 -1.023438 15.65625 -0.453125 C 14.257812 0.117188 12.660156 0.40625 10.859375 0.40625 C 8.097656 0.40625 5.894531 -0.171875 4.25 -1.328125 C 2.613281 -2.484375 1.660156 -4.054688 1.390625 -6.046875 L 7.078125 -6.34375 C 7.253906 -5.488281 7.671875 -4.84375 8.328125 -4.40625 C 8.992188 -3.976562 9.84375 -3.765625 10.875 -3.765625 C 11.882812 -3.765625 12.695312 -3.960938 13.3125 -4.359375 C 13.9375 -4.753906 14.253906 -5.265625 14.265625 -5.890625 C 14.242188 -6.921875 13.351562 -7.613281 11.59375 -7.96875 L 7.96875 -8.6875 C 3.9375 -9.488281 1.925781 -11.476562 1.9375 -14.65625 C 1.925781 -16.664062 2.726562 -18.25 4.34375 -19.40625 C 5.96875 -20.5625 8.117188 -21.140625 10.796875 -21.140625 C 13.429688 -21.140625 15.503906 -20.582031 17.015625 -19.46875 C 18.535156 -18.351562 19.421875 -16.835938 19.671875 -14.921875 Z M 19.671875 -14.921875 "/></g></g></g></svg>