<?xml version="1.0" encoding="UTF-8"?>
<svg id="Layer_1" xmlns="http://www.w3.org/2000/svg" version="1.1" viewBox="0 0 1920 1080">
  <!-- Generator: Adobe Illustrator 29.5.0, SVG Export Plug-In . SVG Version: 2.1.0 Build 137)  -->
  <defs>
    <style>
      .st0 {
        fill: #2563eb;
      }
    </style>
  </defs>
  <path class="st0" d="M848.7,534.4c.2-1.7.9-3.2,1-5,.8-10.4-4.1-19.3-13.7-23.6-1-3.8-2.4-7.5-5.3-10.3-7.5-7.4-19.3-7-26.5.5,0,0-.1.1-.2.2,0,0-.1-.1-.2-.2-7.2-7.5-19-7.9-26.5-.5-2.8,2.8-4.2,6.5-5.3,10.3-9.5,4.3-14.4,13.2-13.7,23.6.1,1.8.8,3.3,1,5-8.6,10.1-7.3,25.6,3.4,33.6.2,19.5,23.1,30.3,38.1,17.3.5-.4,2.6-2.8,3.1-3.2.6.4,2.6,2.8,3.1,3.2,15,13,37.9,2.2,38.1-17.3,10.7-8,12-23.5,3.4-33.6ZM788.9,549.4c3.5,1.1,7.4-2.2,10.2-3.8l.4-.2v24.2c-.4,4.3-3.6,8.8-7.4,10.7-7.5,3.8-16.7.2-19.3-7.8.7,0,1.5,0,1.9,0,1.8,0,3.3.1,4.8-1,2.5-1.9,2.1-6.1-.6-7.6-1.8-1-4.7-.6-7-1.4-9.4-3.3-12.3-16-4.9-22.8,1.5-1.4,4.7-2.7,5.1-4.8.5-2.6-.8-4.8-3.2-5.7-.9-.3-1.5-.2-1.5-.2-.8-4.2,2.4-11.4,6-13.6v.4c.5.8.7,1.5,1.3,2.3,3.2,4,9.5.9,7.9-4.3-.8-2.7-2-3.9-1.3-7.2,2.2-10.2,16.9-9.3,18.1,1,.2,0,3.7,25.3-7.8,32.1-1.6,1-3.6,1.2-4.8,2.8-1.9,2.4-.9,6.2,2.1,7.1ZM836.3,562.7c-2.3.8-5.2.4-7,1.4-2.7,1.5-3.1,5.7-.6,7.6,1.5,1.1,3,1.1,4.8,1,.4,0,1.2,0,1.9,0-2.7,8-11.8,11.6-19.3,7.8-3.8-2-7-6.4-7.4-10.7v-24.2l.4.2c2.8,1.6,6.7,4.9,10.2,3.8,3-.9,3.9-4.8,2.1-7.1-1.2-1.5-3.2-1.8-4.8-2.8-11.6-6.7-8.1-32-7.8-32.1,1.3-10.2,15.9-11.2,18.1-1,.7,3.3-.5,4.5-1.3,7.2-1.6,5.2,4.7,8.4,7.9,4.3.6-.7.8-1.5,1.2-2.3v-.4c3.8,2.2,6.9,9.4,6.1,13.6,0,0-.7-.1-1.5.2-2.4.9-3.7,3.1-3.2,5.7.4,2.2,3.6,3.4,5.1,4.8,7.4,6.8,4.5,19.6-4.9,22.8Z"/>
  <g>
    <path d="M880.8,519.6c.1,7.1,3.8,12.2,14.3,12.2s12.3-3.2,12.3-8.5-2.5-7.2-8.3-8.2l-10.8-1.6c-8-1.2-11.6-5.1-11.6-11.9s5.6-13.2,17.3-13.2,17.8,6,18.4,14.8h-5.5c-.6-6.2-4.5-10.4-13-10.4s-11.5,3.5-11.5,8.6,1.7,6.4,6.9,7.2l11.4,1.7c8.1,1.3,12.4,4.9,12.4,12.2s-5.3,13.7-18,13.7-19.9-7.7-19.9-16.7h5.6Z"/>
    <path d="M936.7,499.9c10.3,0,15.4,5.7,16,13.6h-5.1c-.8-5.6-4.3-9.2-10.6-9.2s-11.8,3.9-11.8,13.8,4.4,13.8,11.6,13.8,10.5-3.9,11.2-9.7h5.2c-.4,7.9-6,14.2-16.4,14.2s-17.1-7.7-17.1-18.2,6-18.2,17.1-18.2Z"/>
    <path d="M990.7,513.4v21.9h-5.5v-21.3c0-7.3-3.2-9.5-8.2-9.5-7.6,0-11.7,5.9-11.7,17.7v13.1h-5.5v-48h5.5v22.8c2.2-6.6,6.4-10.1,13.2-10.1s12.2,4.7,12.2,13.5Z"/>
    <path d="M1025.4,524.7h5c-.7,5.2-4.7,11.7-16,11.7s-17-8-17-18.3,5.6-18.2,17-18.2,16.1,7.1,16.1,17.1,0,1.6-.1,2.4h-27.6c.4,9.4,4.9,12.8,11.8,12.8s9.8-3.2,10.8-7.5ZM1002.9,515.2h22.2c-.3-7.9-4.3-11.2-10.7-11.2s-10.8,3.1-11.5,11.2Z"/>
    <path d="M1065.1,487.3h5.5v48h-5.5v-6.6c-2.3,4.9-6.7,7.7-13,7.7-10.8,0-15.7-7.7-15.7-18.2s4.9-18.2,15.7-18.2,10.6,2.7,13,7.6v-20.2ZM1065.1,518.1c0-9.7-4.6-13.8-11.9-13.8s-11.2,4.5-11.2,13.8,3.4,13.8,11.2,13.8,11.9-4.1,11.9-13.8Z"/>
    <path d="M1079.5,501h5.5v21.3c0,7.6,3.4,9.6,8.6,9.6s11.2-6.4,11.2-17.8v-13.1h5.5v34.3h-5.5v-8.8c-2.1,6.4-6.2,9.9-12.8,9.9s-12.5-4.5-12.5-13.5v-21.9Z"/>
    <path d="M1120,535.2v-48h5.5v48h-5.5Z"/>
    <path d="M1161.1,524.7h5c-.7,5.2-4.7,11.7-16,11.7s-17-8-17-18.3,5.6-18.2,17-18.2,16.1,7.1,16.1,17.1,0,1.6-.1,2.4h-27.6c.4,9.4,4.9,12.8,11.8,12.8s9.8-3.2,10.8-7.5ZM1138.7,515.2h22.2c-.3-7.9-4.3-11.2-10.7-11.2s-10.8,3.1-11.5,11.2Z"/>
    <path d="M875.4,568.8c0-13.8,7.3-24,23.1-24s20.4,6.2,21.7,17.6h-5.9c-1.2-8.8-6-12.8-16-12.8s-16.9,6.4-16.9,19.3,5.1,19.3,16.9,19.3,15-6.2,16.3-14.7h-20.6v-4.3h26.1v22.4h-5.1v-11.1c-2,6.7-7.1,12.3-17.6,12.3-15.1,0-22.1-10.1-22.1-24Z"/>
    <path d="M956,581h5c-.7,5.2-4.7,11.7-16,11.7s-17-8-17-18.3,5.6-18.2,17-18.2,16.1,7.1,16.1,17.1,0,1.6-.1,2.4h-27.6c.4,9.4,4.9,12.8,11.8,12.8s9.8-3.2,10.8-7.5ZM933.5,571.6h22.2c-.3-7.9-4.3-11.2-10.7-11.2s-10.8,3.1-11.5,11.2Z"/>
    <path d="M999,569.7v21.9h-5.5v-21.3c0-7.3-3.2-9.5-8.2-9.5-7.6,0-11.7,5.9-11.7,17.7v13.1h-5.5v-34.3h5.5v9c2.2-6.6,6.4-10.1,13.2-10.1s12.2,4.7,12.2,13.5Z"/>
    <path d="M1007.3,551.7v-5.7h7.1v5.7h-7.1ZM1008.1,591.6v-34.3h5.5v34.3h-5.5Z"/>
    <path d="M1022.9,557.3h5.5v21.3c0,7.6,3.4,9.6,8.6,9.6s11.2-6.4,11.2-17.8v-13.1h5.5v34.3h-5.5v-8.8c-2.1,6.4-6.2,9.9-12.8,9.9s-12.5-4.5-12.5-13.5v-21.9Z"/>
    <path d="M1065.9,580.1c.4,4.7,3,8.4,10.9,8.4s8.4-2.1,8.4-6-1.9-5.1-6.2-5.7l-8-1.2c-6-.8-9.3-4-9.3-9.3s5.1-10.3,13.7-10.3,14.1,4.5,14.5,11h-5.4c-.3-3.6-2.9-6.8-9.3-6.8s-8.2,2.3-8.2,5.7,1.2,4.5,5.6,5.1l7.3,1c7.9,1.2,10.8,4.5,10.8,10.1s-4.9,10.4-14,10.4-15.7-5.3-15.8-12.5h5.1Z"/>
  </g>
</svg>